<?xml version="1.0" encoding="utf-8"?>
<!-- Generator: Adobe Illustrator 28.3.0, SVG Export Plug-In . SVG Version: 6.00 Build 0)  -->
<svg version="1.1" id="Layer_1" xmlns="http://www.w3.org/2000/svg" xmlns:xlink="http://www.w3.org/1999/xlink" x="0px" y="0px"
	 viewBox="0 0 2048 2048" style="enable-background:new 0 0 2048 2048;" xml:space="preserve">
<style type="text/css">
	.st0{fill:#71717A;}
	.st1{fill:#D4D4D8;}
</style>
<rect x="-108.6" y="-110.3" class="st0" width="2265.3" height="2279.9"/>
<g>
	<path class="st1" d="M425,952.4h-57.1v-57.1H425V952.4z M1680.1,895.3H1623v57.1h57.1V895.3z M539.1,838.3H482v171.2h57.1V838.3z
		 M1566,838.3h-57.1v171.2h57.1V838.3z M767.3,838.3h-57.1v171.2h57.1V838.3z M1337.8,781.2h-57.1v285.3h57.1V781.2z M653.2,781.2
		h-57.1v285.3h57.1V781.2z M1451.9,724.2h-57.1v399.4h57.1V724.2z M881.4,724.2h-57.1v399.4h57.1V724.2z M995.5,610.1h-57.1v570.5
		h57.1V610.1z M1223.7,610.1h-57.1v570.5h57.1V610.1z M1109.6,496h-57.1v798.7h57.1V496z"/>
	<g>
		<path class="st1" d="M528.9,1451.3l-33,100.7h-25l-22.2-68.2l-22.9,68.2H401l-33.1-100.7h24.2l22.7,70.8l23.7-70.8h21.6l23,71.4
			l23.5-71.4H528.9z"/>
		<path class="st1" d="M633.6,1530.5h-46.8l-8.9,21.6H554l44.9-100.7h23l45,100.7h-24.5L633.6,1530.5z M626.3,1512.8l-16-38.6
			l-16,38.6H626.3z"/>
		<path class="st1" d="M748.4,1516.4v35.7h-23.3v-36l-39-64.7h24.7l26.9,44.7l26.9-44.7h22.9L748.4,1516.4z"/>
		<path class="st1" d="M893.6,1533.1v19h-76.1V1537l38.8-36.7c4.1-3.9,6.9-7.3,8.3-10.1c1.4-2.8,2.2-5.6,2.2-8.4
			c0-4-1.4-7.1-4.1-9.3c-2.7-2.2-6.7-3.2-12-3.2c-4.4,0-8.4,0.8-11.9,2.5s-6.5,4.2-8.9,7.6l-17-10.9c3.9-5.8,9.4-10.4,16.3-13.7
			c6.9-3.3,14.8-5,23.7-5c7.5,0,14,1.2,19.6,3.7c5.6,2.4,10,5.9,13.1,10.4s4.7,9.7,4.7,15.8c0,5.5-1.2,10.6-3.5,15.4
			s-6.8,10.3-13.4,16.4l-23.2,21.9h43.4V1533.1z"/>
		<path class="st1" d="M938.3,1451.3h23.3v81.7h50.5v19h-73.8V1451.3z"/>
		<path class="st1" d="M1132,1533.3v18.7h-78v-100.7h76.1v18.7h-52.9v21.9h46.8v18.1h-46.8v23.3H1132z"/>
		<path class="st1" d="M1245.6,1530.5h-46.8l-8.9,21.6H1166l44.9-100.7h23l45,100.7h-24.5L1245.6,1530.5z M1238.3,1512.8l-16-38.6
			l-16,38.6H1238.3z"/>
		<path class="st1" d="M1355,1512.5l-13.5,14.1v25.5h-23.2v-100.7h23.2v47l44.6-47h25.9l-41.7,44.9l44.2,55.8h-27.2L1355,1512.5z"/>
		<path class="st1" d="M1531.5,1533.3v18.7h-78v-100.7h76.1v18.7h-52.9v21.9h46.8v18.1h-46.8v23.3H1531.5z"/>
		<path class="st1" d="M1578.8,1451.3h45.7c10.9,0,20.6,2.1,29,6.3c8.4,4.2,14.9,10,19.6,17.6s7,16.4,7,26.5s-2.3,18.9-7,26.5
			s-11.2,13.5-19.6,17.6c-8.4,4.2-18.1,6.3-29,6.3h-45.7V1451.3z M1623.4,1532.9c10.1,0,18.1-2.8,24.1-8.4s9-13.2,9-22.8
			c0-9.6-3-17.2-9-22.8c-6-5.6-14-8.4-24.1-8.4h-21.3v62.4L1623.4,1532.9L1623.4,1532.9z"/>
	</g>
</g>
</svg>
